<svg xmlns="http://www.w3.org/2000/svg" width="24" height="24" viewBox="0 0 24 24">
  <defs>
    <style>
      .cls-1 {
        fill: #fff;
        fill-rule: evenodd;
      }
    </style>
  </defs>
  <path id="ins.svg" class="cls-1" d="M489.008,1851.01c1.612,0.03,3.223.04,4.834,0.09a7.882,7.882,0,0,1,3.969,1.03,5.96,5.96,0,0,1,2.882,4.22,21.4,21.4,0,0,1,.27,3.31c0.036,2.38.022,4.76,0,7.14a11.647,11.647,0,0,1-.47,3.71,6.032,6.032,0,0,1-4.841,4.2,20.388,20.388,0,0,1-3.316.27c-2.374.03-4.749,0.02-7.122-.01a11.643,11.643,0,0,1-3.71-.46,6.037,6.037,0,0,1-4.215-4.83,19.087,19.087,0,0,1-.272-3.31c-0.036-2.38-.022-4.76,0-7.14a11.584,11.584,0,0,1,.47-3.71,6.03,6.03,0,0,1,4.84-4.2,22.912,22.912,0,0,1,3.317-.27c1.12-.04,2.243-0.01,3.364-0.01v-0.03Zm9.853,11.81h-0.049c0-.94.019-1.89,0-2.83-0.024-.91-0.059-1.82-0.151-2.73a4.034,4.034,0,0,0-3.41-3.8,19.115,19.115,0,0,0-3.212-.25q-3.05-.045-6.1,0a21.953,21.953,0,0,0-3.035.21,3.913,3.913,0,0,0-3.4,2.98,7.043,7.043,0,0,0-.257,1.7c-0.052,2.17-.084,4.34-0.076,6.51,0,1.38.036,2.77,0.157,4.14a4.029,4.029,0,0,0,3.467,3.84,19.943,19.943,0,0,0,3.189.23c2.006,0.03,4.013.02,6.019,0,0.918-.01,1.839-0.06,2.752-0.15a4.257,4.257,0,0,0,3.953-4.37C498.794,1866.48,498.812,1864.65,498.861,1862.82Zm-3.714.2a6.16,6.16,0,1,1-6.1-6.16A6.137,6.137,0,0,1,495.147,1863.02Zm-6.162,3.99a4,4,0,1,0-3.993-4A4.016,4.016,0,0,0,488.985,1867.01Zm7.844-10.4a1.447,1.447,0,0,1-1.44,1.46,1.469,1.469,0,0,1-1.449-1.46,1.447,1.447,0,0,1,1.439-1.43A1.417,1.417,0,0,1,496.829,1856.61Z" transform="translate(-477 -1851)"/>
</svg>
