<svg xmlns="http://www.w3.org/2000/svg" width="292" height="146" viewBox="0 0 292 146">
  <defs>
    <style>
      .cls-1 {
        fill: #fff;
        fill-rule: evenodd;
      }
    </style>
  </defs>
  <path id="logo-shape.svg" class="cls-1" d="M959.994-46.05a96.533,96.533,0,0,0-18.267,1.95,96.6,96.6,0,0,0-14.3,11.538,96.571,96.571,0,0,0-11.537,14.3A96.521,96.521,0,0,0,913.944,0a96.521,96.521,0,0,0,1.95,18.267,96.571,96.571,0,0,0,11.537,14.3,96.6,96.6,0,0,0,14.3,11.538,96.533,96.533,0,0,0,18.267,1.95,96.542,96.542,0,0,0,18.267-1.95,96.535,96.535,0,0,0,14.3-11.538,96.3,96.3,0,0,0,11.534-14.3A95.55,95.55,0,0,0,1006.04,0a95.55,95.55,0,0,0-1.95-18.267,96.3,96.3,0,0,0-11.534-14.3,96.535,96.535,0,0,0-14.3-11.538A96.542,96.542,0,0,0,959.994-46.05Zm-2.659,39.63a4.818,4.818,0,0,0,2.659.807,4.818,4.818,0,0,0,2.659-.807,4.821,4.821,0,0,0,1.309,2.451,4.819,4.819,0,0,0,2.451,1.309A4.825,4.825,0,0,0,965.606,0a4.825,4.825,0,0,0,.807,2.659,4.782,4.782,0,0,0-3.76,3.761,4.782,4.782,0,0,0-5.318,0,4.785,4.785,0,0,0-3.761-3.761A4.818,4.818,0,0,0,954.382,0a4.818,4.818,0,0,0-.808-2.659,4.819,4.819,0,0,0,2.451-1.309A4.815,4.815,0,0,0,957.335-6.419ZM960-97.24c-19.778,0-8.559,32.63-5.277,41.944a4.974,4.974,0,0,0,5.26,3.366h0.032a4.973,4.973,0,0,0,5.259-3.366C968.552-64.61,979.771-97.24,960-97.24Zm68.755,28.482c-13.98-13.985-29.121,17.021-33.387,25.928a4.974,4.974,0,0,0,1.34,6.1l0.01,0.012,0.012,0.01a4.97,4.97,0,0,0,6.1,1.339C1011.73-39.635,1042.74-54.774,1028.75-68.758ZM1057.23,0c0-19.778-32.63-8.559-41.94-5.276a4.984,4.984,0,0,0-3.37,5.26V0.016a4.984,4.984,0,0,0,3.37,5.26C1024.6,8.558,1057.23,19.777,1057.23,0ZM1028.75,68.76c13.99-13.985-17.02-29.125-25.93-33.39a4.97,4.97,0,0,0-6.1,1.339l-0.012.01-0.01.012a4.974,4.974,0,0,0-1.34,6.1C999.629,51.738,1014.77,82.743,1028.75,68.76ZM959.993,97.24c19.778,0,8.559-32.63,5.276-41.944a4.973,4.973,0,0,0-5.259-3.366h-0.032a4.974,4.974,0,0,0-5.26,3.366C951.436,64.61,940.217,97.24,959.993,97.24ZM891.234,68.758c13.985,13.985,29.125-17.021,33.39-25.928a4.974,4.974,0,0,0-1.339-6.1l-0.01-.012-0.012-.01a4.975,4.975,0,0,0-6.1-1.339C908.256,39.635,877.25,54.775,891.234,68.758ZM862.754,0c0,19.778,32.63,8.559,41.944,5.276a4.974,4.974,0,0,0,3.366-5.26c0-.005,0-0.011,0-0.016s0-.01,0-0.016a4.974,4.974,0,0,0-3.366-5.26C895.384-8.558,862.754-19.777,862.754,0ZM891.235-68.76c-13.985,13.985,17.021,29.125,25.928,33.39a4.975,4.975,0,0,0,6.1-1.339l0.012-.01,0.01-.012a4.974,4.974,0,0,0,1.339-6.1C920.359-51.737,905.219-82.743,891.235-68.76ZM939.25-50.08c3.832-1.371,5.473-6.486,4.782-10.218-0.674-3.638-3.648-7.639-7.592-7.734a4.6,4.6,0,0,0-.469-0.021c-0.06,0-.114-0.013-0.175-0.008h-0.009a4.274,4.274,0,0,0-1.308.176,7.444,7.444,0,0,0-2.157,1.08,7.454,7.454,0,0,0-2.288.761,4.265,4.265,0,0,0-1.049.8l-0.008.006c-0.046.039-.073,0.089-0.118,0.129a4.516,4.516,0,0,0-.316.347c-2.722,2.856-2,7.788.1,10.837C930.794-50.8,935.571-48.34,939.25-50.08Zm41.487,0c3.68,1.74,8.456-.716,10.607-3.844,2.1-3.049,2.823-7.981.1-10.837a4.53,4.53,0,0,0-.317-0.347c-0.045-.04-0.071-0.09-0.118-0.129L991-65.242a4.247,4.247,0,0,0-1.049-.8,7.437,7.437,0,0,0-2.288-.761,7.438,7.438,0,0,0-2.156-1.08,4.278,4.278,0,0,0-1.308-.176h-0.01c-0.06-.005-0.115.011-0.174,0.008a4.622,4.622,0,0,0-.47.021c-3.944.095-6.918,4.1-7.592,7.734C975.264-56.565,976.905-51.451,980.737-50.08Zm29.333,29.336c1.37,3.832,6.49,5.473,10.22,4.782,3.64-.674,7.64-3.648,7.74-7.592,0.02-.155.01-0.313,0.02-0.47a1.021,1.021,0,0,1,.01-0.174c-0.01,0-.01-0.007-0.01-0.01a4.5,4.5,0,0,0-.17-1.308,7.6,7.6,0,0,0-1.08-2.156,7.58,7.58,0,0,0-.76-2.288,4.273,4.273,0,0,0-.8-1.049c-0.01,0-.01-0.005-0.01-0.008-0.04-.046-0.09-0.073-0.13-0.118a3.289,3.289,0,0,0-.35-0.317c-2.85-2.722-7.78-2-10.83.1C1010.79-29.2,1008.33-24.423,1010.07-20.743Zm0,41.487c-1.74,3.679.72,8.456,3.85,10.607,3.05,2.1,7.98,2.822,10.83.1a3.3,3.3,0,0,0,.35-0.317c0.04-.045.09-0.072,0.13-0.118,0,0,0-.006.01-0.008a4.273,4.273,0,0,0,.8-1.049,7.58,7.58,0,0,0,.76-2.288,7.606,7.606,0,0,0,1.08-2.156,4.5,4.5,0,0,0,.17-1.308s0-.006.01-0.01a1.021,1.021,0,0,1-.01-0.174c-0.01-.157,0-0.315-0.02-0.47-0.1-3.944-4.1-6.918-7.74-7.592C1016.56,15.27,1011.44,16.911,1010.07,20.744ZM980.737,50.08c-3.832,1.371-5.473,6.486-4.782,10.218,0.674,3.638,3.648,7.639,7.592,7.734a4.537,4.537,0,0,0,.47.021c0.059,0,.114.013,0.174,0.008h0.01a4.278,4.278,0,0,0,1.308-.176,7.438,7.438,0,0,0,2.156-1.08,7.437,7.437,0,0,0,2.288-.761,4.247,4.247,0,0,0,1.049-.8l0.008-.006c0.047-.039.073-0.089,0.118-0.129a4.53,4.53,0,0,0,.317-0.347c2.722-2.856,2-7.788-.1-10.837C989.193,50.8,984.417,48.34,980.737,50.08Zm-41.487,0c-3.679-1.74-8.456.716-10.607,3.844-2.1,3.049-2.822,7.981-.1,10.837a4.516,4.516,0,0,0,.316.347c0.045,0.04.072,0.09,0.118,0.129l0.008,0.006a4.265,4.265,0,0,0,1.049.8,7.454,7.454,0,0,0,2.288.761,7.444,7.444,0,0,0,2.157,1.08,4.274,4.274,0,0,0,1.308.176H935.8c0.061,0.005.115-.011,0.175-0.008a4.518,4.518,0,0,0,.469-0.021c3.944-.095,6.918-4.1,7.592-7.734C944.723,56.565,943.082,51.451,939.25,50.08ZM909.914,20.744c-1.371-3.832-6.485-5.473-10.218-4.782-3.639.674-7.64,3.648-7.735,7.592-0.022.155-.014,0.313-0.021,0.47,0,0.06-.013.114-0.008,0.174a0.036,0.036,0,0,1,0,.01,4.283,4.283,0,0,0,.175,1.308,7.453,7.453,0,0,0,1.08,2.156,7.424,7.424,0,0,0,.762,2.288,4.273,4.273,0,0,0,.8,1.049l0.006,0.008c0.039,0.046.089,0.073,0.129,0.118a4.464,4.464,0,0,0,.347.317c2.856,2.722,7.788,2,10.837-.1C909.2,29.2,911.654,24.423,909.914,20.744Zm0-41.487c1.74-3.679-.716-8.456-3.844-10.607-3.049-2.1-7.981-2.822-10.837-.1a4.443,4.443,0,0,0-.347.317c-0.04.045-.09,0.072-0.129,0.118l-0.006.008a4.273,4.273,0,0,0-.8,1.049,7.424,7.424,0,0,0-.762,2.288,7.451,7.451,0,0,0-1.08,2.156,4.281,4.281,0,0,0-.175,1.308,0.036,0.036,0,0,1,0,.01c0,0.06.011,0.115,0.008,0.174,0.007,0.157,0,.315.021,0.47,0.1,3.944,4.1,6.918,7.735,7.592C903.429-15.27,908.543-16.911,909.914-20.743ZM959.994-146a4.838,4.838,0,0,0-4.279,2.416c-5.652,10.074-14.573,14.1-22.756,21.468a24.2,24.2,0,0,0-6.864,10.168,22.234,22.234,0,0,0-8.17-5.935,58.233,58.233,0,0,0-7.843-2.611,58.326,58.326,0,0,0-3.7,7.392,22.228,22.228,0,0,0-1.58,9.974,24.19,24.19,0,0,0-12.044-2.336c-10.993.579-20.151,4.037-31.271,0.91a4.835,4.835,0,0,0-4.734,1.318,4.837,4.837,0,0,0-1.317,4.733c3.127,11.12-.331,20.278-0.911,31.271a24.2,24.2,0,0,0,2.336,12.044,22.224,22.224,0,0,0-9.973,1.58,58.392,58.392,0,0,0-7.393,3.7,58.514,58.514,0,0,0,2.611,7.844,22.231,22.231,0,0,0,5.936,8.169,24.206,24.206,0,0,0-10.169,6.865c-7.363,8.183-11.393,17.1-21.468,22.756A4.835,4.835,0,0,0,813.99,0a4.835,4.835,0,0,0,2.415,4.279c10.075,5.652,14.105,14.573,21.468,22.755A24.206,24.206,0,0,0,848.042,33.9a22.231,22.231,0,0,0-5.936,8.169,58.523,58.523,0,0,0-2.611,7.844,58.392,58.392,0,0,0,7.393,3.7,22.224,22.224,0,0,0,9.973,1.58,24.2,24.2,0,0,0-2.336,12.044c0.58,10.993,4.038,20.151.911,31.271a5,5,0,0,0,6.051,6.052c11.12-3.127,20.278.331,31.271,0.91a24.19,24.19,0,0,0,12.044-2.336,22.228,22.228,0,0,0,1.58,9.974,58.326,58.326,0,0,0,3.7,7.392,58.233,58.233,0,0,0,7.843-2.611,22.234,22.234,0,0,0,8.17-5.935,24.2,24.2,0,0,0,6.864,10.168c8.183,7.363,17.1,11.394,22.756,21.468a5,5,0,0,0,8.558,0c5.652-10.074,14.572-14.1,22.755-21.468a24.2,24.2,0,0,0,6.865-10.168,22.23,22.23,0,0,0,8.167,5.935,58.227,58.227,0,0,0,7.85,2.611,59.827,59.827,0,0,0,3.7-7.392,22.3,22.3,0,0,0,1.58-9.974,24.174,24.174,0,0,0,12.04,2.336c10.99-.579,20.15-4.037,31.27-0.91a5,5,0,0,0,6.05-6.052c-3.13-11.12.33-20.278,0.91-31.271a24.222,24.222,0,0,0-2.33-12.044,22.222,22.222,0,0,0,9.97-1.58,58.484,58.484,0,0,0,7.39-3.7,58.233,58.233,0,0,0-2.61-7.844,22.263,22.263,0,0,0-5.93-8.169,24.179,24.179,0,0,0,10.16-6.865c7.37-8.183,11.4-17.1,21.47-22.755A4.84,4.84,0,0,0,1106,0a4.839,4.839,0,0,0-2.42-4.279c-10.07-5.652-14.1-14.573-21.47-22.756a24.179,24.179,0,0,0-10.16-6.865,22.263,22.263,0,0,0,5.93-8.169,58.224,58.224,0,0,0,2.61-7.844,58.484,58.484,0,0,0-7.39-3.7,22.222,22.222,0,0,0-9.97-1.58,24.222,24.222,0,0,0,2.33-12.044c-0.58-10.993-4.04-20.151-.91-31.271a4.822,4.822,0,0,0-1.32-4.733,4.824,4.824,0,0,0-4.73-1.318c-11.12,3.127-20.28-.331-31.27-0.91a24.174,24.174,0,0,0-12.04,2.336,22.3,22.3,0,0,0-1.58-9.974,59.827,59.827,0,0,0-3.7-7.392,58.227,58.227,0,0,0-7.85,2.611,22.23,22.23,0,0,0-8.167,5.935,24.2,24.2,0,0,0-6.865-10.168c-8.183-7.363-17.1-11.394-22.755-21.468A4.838,4.838,0,0,0,959.994-146ZM920.131-96.237a30.357,30.357,0,0,1,5.7,4.18c2.141,1.976,6.383,2.032,7.785-1a28.805,28.805,0,0,1,26.374-17.2,28.8,28.8,0,0,1,26.373,17.2c1.4,3.035,5.645,2.979,7.785,1a30.389,30.389,0,0,1,5.7-4.18,29.774,29.774,0,0,1,1.074,6.989c0.12,2.911,3.08,5.951,6.22,4.8a28.8,28.8,0,0,1,30.81,6.485,28.813,28.813,0,0,1,6.49,30.813c-1.16,3.138,1.88,6.1,4.79,6.214a30.418,30.418,0,0,1,6.99,1.078,30.169,30.169,0,0,1-4.18,5.7c-1.98,2.141-2.03,6.383,1,7.785A28.8,28.8,0,0,1,1070.26,0a28.8,28.8,0,0,1-17.21,26.373c-3.03,1.4-2.98,5.645-1,7.785a30.169,30.169,0,0,1,4.18,5.7,30.418,30.418,0,0,1-6.99,1.078c-2.91.116-5.95,3.077-4.79,6.214a28.821,28.821,0,0,1-37.3,37.3c-3.14-1.155-6.1,1.885-6.22,4.8a29.774,29.774,0,0,1-1.074,6.989,30.389,30.389,0,0,1-5.7-4.18c-2.14-1.976-6.383-2.032-7.785,1a28.818,28.818,0,0,1-52.747,0c-1.4-3.035-5.644-2.979-7.785-1a30.357,30.357,0,0,1-5.7,4.18,30.356,30.356,0,0,1-1.078-6.989c-0.116-2.911-3.076-5.951-6.214-4.8a28.818,28.818,0,0,1-37.3-37.3c1.155-3.138-1.884-6.1-4.8-6.214a30.35,30.35,0,0,1-6.989-1.078,30.345,30.345,0,0,1,4.18-5.7c1.976-2.141,2.032-6.383-1-7.785A28.8,28.8,0,0,1,849.731,0a28.8,28.8,0,0,1,17.2-26.373c3.035-1.4,2.979-5.645,1-7.785a30.345,30.345,0,0,1-4.18-5.7,30.35,30.35,0,0,1,6.989-1.078c2.911-.116,5.95-3.077,4.8-6.214a28.806,28.806,0,0,1,6.485-30.813,28.8,28.8,0,0,1,30.813-6.485c3.138,1.155,6.1-1.885,6.214-4.8A30.356,30.356,0,0,1,920.131-96.237Zm39.863-35.519-0.2,0c0.066-.086.137-0.167,0.2-0.253,0.063,0.086.133,0.167,0.2,0.253Zm93.166,38.591q-0.075-.071-0.15-0.139c0.11-.014.22-0.022,0.33-0.037-0.02.105-.03,0.213-0.04,0.32C1053.25-93.069,1053.21-93.118,1053.16-93.165ZM1091.75,0a1.346,1.346,0,0,0-.01-0.2c0.09,0.066.17,0.136,0.26,0.2-0.09.063-.17,0.134-0.26,0.2A1.344,1.344,0,0,0,1091.75,0Zm-38.59,93.165c0.05-.047.09-0.1,0.14-0.145l0.03,0.322c-0.1-.016-0.21-0.024-0.32-0.038Q1053.085,93.236,1053.16,93.165Zm-93.166,38.591,0.2,0c-0.066.086-.136,0.167-0.2,0.253-0.063-.086-0.134-0.167-0.2-0.253ZM866.828,93.165c0.048,0.047.1,0.093,0.146,0.139-0.108.014-.215,0.022-0.322,0.037,0.016-.105.024-0.213,0.038-0.32Q866.757,93.094,866.828,93.165ZM828.238,0c0,0.067,0,.134,0,0.2-0.086-.066-0.168-0.136-0.254-0.2,0.086-.063.168-0.133,0.254-0.2C828.24-.133,828.238-0.067,828.238,0Zm38.59-93.165q-0.071.071-.138,0.145c-0.014-.107-0.022-0.215-0.037-0.322,0.106,0.016.213,0.024,0.321,0.038C866.924-93.258,866.876-93.212,866.828-93.165ZM959.5-106A112.5,112.5,0,1,1,847,6.5,112.5,112.5,0,0,1,959.5-106Z" transform="translate(-814)"/>
</svg>
