<svg xmlns="http://www.w3.org/2000/svg" width="14" height="24" viewBox="0 0 14 24">
  <defs>
    <style>
      .cls-1 {
        fill: #fff;
        fill-rule: evenodd;
      }
    </style>
  </defs>
  <path id="ok.svg" class="cls-1" d="M559,1863.99a6.51,6.51,0,1,0-6.067-6.5A6.294,6.294,0,0,0,559,1863.99Zm0-9.99a3.5,3.5,0,1,1-3.267,3.49A3.383,3.383,0,0,1,559,1854Zm5.943,13.06a2.552,2.552,0,0,0,1.057-2.09,1.841,1.841,0,0,0-.949-1.66,1.682,1.682,0,0,0-1.867.19,6.715,6.715,0,0,1-8.367,0,1.7,1.7,0,0,0-1.867-.19,1.837,1.837,0,0,0-.95,1.66,2.552,2.552,0,0,0,1.057,2.09,10.088,10.088,0,0,0,2.735,1.4,4.214,4.214,0,0,0,.509.15l-2.821,2.96a2.092,2.092,0,0,0-.04,2.82,1.782,1.782,0,0,0,2.64.04c0.015-.01.03-0.03,0.045-0.04L559,1871.2l2.881,3.19a1.789,1.789,0,0,0,2.639.05,2.1,2.1,0,0,0,.042-2.83c-0.015-.02-0.03-0.03-0.046-0.05l-2.816-2.95c0.175-.04.345-0.1,0.511-0.15A10.057,10.057,0,0,0,564.943,1867.06Z" transform="translate(-552 -1851)"/>
</svg>
