<svg xmlns="http://www.w3.org/2000/svg" width="19" height="18.969" viewBox="0 0 19 18.969">
  <defs>
    <style>
      .cls-1 {
        fill: #fff;
        fill-rule: evenodd;
      }
    </style>
  </defs>
  <path id="pen.svg" class="cls-1" d="M1048.57,549.423a4.842,4.842,0,0,0-6.86,0l-9.59,9.588a0.632,0.632,0,0,0-.18.361l-0.93,6.91a0.636,0.636,0,0,0,.17.53,0.666,0.666,0,0,0,.45.188,0.379,0.379,0,0,0,.08,0l4.17-.563a0.634,0.634,0,0,0-.17-1.256l-3.34.45,0.65-4.819,5.07,5.072a0.647,0.647,0,0,0,.45.188,0.6,0.6,0,0,0,.44-0.188l9.59-9.588a4.838,4.838,0,0,0,0-6.868h0Zm-6.62,1.547,2.12,2.115-8.49,8.49-2.12-2.114Zm-3.41,13.569-2.06-2.068,8.49-8.491,2.06,2.068Zm9.37-9.4-5.05-5.059a3.591,3.591,0,0,1,5.05,5.059h0Zm0,0" transform="translate(-1031 -548.031)"/>
</svg>
