<svg xmlns="http://www.w3.org/2000/svg" width="26" height="26" viewBox="0 0 26 26">
  <defs>
    <style>
      .cls-1 {
        fill: #fff;
        fill-rule: evenodd;
      }
    </style>
  </defs>
  <path id="tel.svg" class="cls-1" d="M967.559,172.106a2.564,2.564,0,0,0-1.858-.851,2.65,2.65,0,0,0-1.879.845l-1.737,1.729c-0.143-.077-0.285-0.148-0.423-0.219-0.2-.1-0.384-0.192-0.544-0.291A18.862,18.862,0,0,1,956.6,169.2a11.143,11.143,0,0,1-1.484-2.338c0.451-.411.869-0.839,1.275-1.251,0.154-.153.308-0.312,0.462-0.466a2.515,2.515,0,0,0,0-3.8l-1.5-1.5c-0.171-.17-0.346-0.345-0.511-0.521-0.33-.34-0.676-0.691-1.034-1.02a2.6,2.6,0,0,0-1.841-.807,2.694,2.694,0,0,0-1.868.807l-0.011.01-1.868,1.883a4.008,4.008,0,0,0-1.193,2.551,9.617,9.617,0,0,0,.7,4.072,23.63,23.63,0,0,0,4.2,7,25.858,25.858,0,0,0,8.611,6.733,13.439,13.439,0,0,0,4.836,1.427c0.116,0,.236.011,0.346,0.011a4.144,4.144,0,0,0,3.171-1.361c0.006-.011.017-0.017,0.022-0.027a12.57,12.57,0,0,1,.962-0.994c0.236-.225.478-0.461,0.714-0.708a2.734,2.734,0,0,0,.83-1.9,2.633,2.633,0,0,0-.846-1.882Zm1.967,5.778s0,0.006,0,0c-0.214.231-.434,0.439-0.67,0.67a14.6,14.6,0,0,0-1.061,1.1,2.65,2.65,0,0,1-2.066.873c-0.083,0-.17,0-0.253-0.006a11.938,11.938,0,0,1-4.287-1.284,24.408,24.408,0,0,1-8.111-6.343,22.284,22.284,0,0,1-3.957-6.58,7.816,7.816,0,0,1-.615-3.435,2.52,2.52,0,0,1,.758-1.63l1.874-1.871a1.247,1.247,0,0,1,.835-0.39,1.175,1.175,0,0,1,.8.385s0.011,0.01.016,0.016c0.336,0.313.654,0.637,0.99,0.982,0.17,0.176.346,0.351,0.522,0.533l1.5,1.5a1.047,1.047,0,0,1,0,1.7c-0.16.159-.313,0.318-0.473,0.472-0.461.472-.9,0.911-1.379,1.339a0.145,0.145,0,0,0-.028.027,1.119,1.119,0,0,0-.285,1.246l0.016,0.049a12.024,12.024,0,0,0,1.775,2.892l0.006,0a20.143,20.143,0,0,0,4.88,4.434,7.428,7.428,0,0,0,.676.368c0.2,0.1.384,0.192,0.544,0.291,0.022,0.011.044,0.027,0.066,0.038a1.194,1.194,0,0,0,.544.137,1.175,1.175,0,0,0,.835-0.378l1.88-1.877a1.242,1.242,0,0,1,.829-0.411,1.12,1.12,0,0,1,.792.4l0.011,0.011,3.028,3.024A1.083,1.083,0,0,1,969.526,177.884Zm-8.474-15.7a7.068,7.068,0,0,1,5.76,5.75,0.736,0.736,0,0,0,.73.615,0.907,0.907,0,0,0,.127-0.011,0.742,0.742,0,0,0,.61-0.856,8.547,8.547,0,0,0-6.969-6.958,0.746,0.746,0,0,0-.857.6A0.733,0.733,0,0,0,961.052,162.185Zm11.936,5.284a14.072,14.072,0,0,0-11.474-11.458,0.74,0.74,0,1,0-.242,1.46,12.569,12.569,0,0,1,10.255,10.239,0.736,0.736,0,0,0,.731.615,0.893,0.893,0,0,0,.126-0.011A0.726,0.726,0,0,0,972.988,167.469Z" transform="translate(-947 -156)"/>
</svg>
